<svg width="75" height="74" viewBox="0 0 75 74" fill="none" xmlns="http://www.w3.org/2000/svg">
<rect width="74" height="74" transform="translate(0.5)" fill="#0C0E1F"/>
<path d="M14.4902 13.0391C15.3105 13.1328 16.002 13.2031 16.5645 13.25C17.127 13.2734 17.5723 13.2969 17.9004 13.3203C18.2988 13.3437 18.6152 13.3555 18.8496 13.3555C19.248 13.3555 19.7051 13.3437 20.2207 13.3203C20.666 13.2969 21.1816 13.2617 21.7676 13.2148C22.377 13.1445 23.0332 13.0391 23.7363 12.8984C23.4082 13.25 23.1387 13.5898 22.9277 13.918C22.7168 14.2227 22.5527 14.5039 22.4355 14.7617C22.2949 15.043 22.1777 15.3008 22.084 15.5352C21.9902 15.8398 21.8848 16.3086 21.7676 16.9414C21.6504 17.4805 21.5215 18.2422 21.3809 19.2266C21.2637 20.2109 21.1113 21.5 20.9238 23.0938C21.7207 23.1172 22.4121 23.1289 22.998 23.1289C23.584 23.1055 24.0762 23.0938 24.4746 23.0938H25.6348C25.9629 23.0703 26.3379 23.0469 26.7598 23.0234C27.4629 23 28.5293 22.9297 29.959 22.8125C30.0762 21.7344 30.1348 20.8086 30.1348 20.0352C30.1582 19.2383 30.1465 18.5703 30.0996 18.0312C30.0527 17.4219 29.9824 16.9062 29.8887 16.4844C29.8184 16.25 29.7129 15.9688 29.5723 15.6406C29.4551 15.3594 29.291 15.0195 29.0801 14.6211C28.8926 14.1992 28.6348 13.6953 28.3066 13.1094C28.916 13.2031 29.4551 13.2734 29.9238 13.3203C30.416 13.3437 30.8262 13.3672 31.1543 13.3906C31.5293 13.4141 31.8457 13.4258 32.1035 13.4258C32.3613 13.4258 32.7012 13.4141 33.123 13.3906C33.4746 13.3672 33.9082 13.3555 34.4238 13.3555C34.9395 13.332 35.5723 13.2969 36.3223 13.25C36.1348 13.5781 35.9707 13.918 35.8301 14.2695C35.6895 14.6211 35.5723 14.9375 35.4785 15.2188C35.3848 15.5469 35.291 15.875 35.1973 16.2031C35.0801 16.6953 34.9746 17.4102 34.8809 18.3477C34.8105 19.2852 34.7402 20.3281 34.6699 21.4766C34.623 22.625 34.5762 23.8203 34.5293 25.0625C34.5059 26.3047 34.4824 27.4766 34.459 28.5781C34.459 29.6797 34.4707 30.6641 34.4941 31.5312C34.5176 32.375 34.5645 32.9727 34.6348 33.3242C34.7051 33.7461 34.8223 34.1797 34.9863 34.625C35.127 35.0234 35.3145 35.457 35.5488 35.9258C35.7832 36.3711 36.0879 36.793 36.4629 37.1914L27.9902 37.8242C28.3418 37.4961 28.623 37.1797 28.834 36.875C29.0449 36.5469 29.209 36.2656 29.3262 36.0312C29.4434 35.7734 29.5254 35.5273 29.5723 35.293C29.5957 35.0117 29.6309 34.5195 29.6777 33.8164C29.7246 33.2305 29.7715 32.3984 29.8184 31.3203C29.8652 30.2422 29.9121 28.8125 29.959 27.0312C29.6309 27.0312 29.2324 27.043 28.7637 27.0664C28.3184 27.0664 27.8965 27.0781 27.498 27.1016C27.0293 27.125 26.5371 27.1367 26.0215 27.1367C25.5059 27.1602 24.9668 27.1836 24.4043 27.207C23.9355 27.2539 23.4082 27.3008 22.8223 27.3477C22.2598 27.3711 21.6973 27.4062 21.1348 27.4531C21.0879 28.4375 21.0879 29.3047 21.1348 30.0547C21.1816 30.7812 21.252 31.4023 21.3457 31.918C21.4395 32.5273 21.5566 33.0547 21.6973 33.5C21.8379 33.9219 21.9902 34.3438 22.1543 34.7656C22.2949 35.1406 22.459 35.5391 22.6465 35.9609C22.8574 36.3828 23.0684 36.7578 23.2793 37.0859C22.834 37.0391 22.4238 37.0039 22.0488 36.9805C21.6738 36.9336 21.3457 36.8867 21.0645 36.8398C20.7363 36.8164 20.4199 36.793 20.1152 36.7695C19.8105 36.7695 19.4473 36.7578 19.0254 36.7344C18.6504 36.7109 18.1816 36.6992 17.6191 36.6992C17.0566 36.6758 16.4004 36.6641 15.6504 36.6641C16.0957 36.2188 16.4473 35.7852 16.7051 35.3633C16.9863 34.918 17.1855 34.5195 17.3027 34.168C17.4434 33.7461 17.5371 33.3594 17.584 33.0078C17.6074 32.7031 17.6191 32.1289 17.6191 31.2852C17.6426 30.4414 17.6426 29.4805 17.6191 28.4023C17.6191 27.3008 17.6074 26.1523 17.584 24.957C17.5605 23.7383 17.5254 22.6016 17.4785 21.5469C17.4551 20.4922 17.4199 19.5898 17.373 18.8398C17.3496 18.0664 17.3262 17.5859 17.3027 17.3984C17.1855 16.9766 17.0098 16.5195 16.7754 16.0273C16.5645 15.6289 16.2832 15.1719 15.9316 14.6562C15.5801 14.1172 15.0996 13.5781 14.4902 13.0391ZM59.5957 12.2656C59.2676 13.0156 58.9746 13.6719 58.7168 14.2344C58.459 14.7969 58.2363 15.2773 58.0488 15.6758C57.8379 16.1211 57.6621 16.5195 57.5215 16.8711C57.4043 17.1289 57.252 17.4805 57.0645 17.9258C56.877 18.3242 56.6426 18.8516 56.3613 19.5078C56.1035 20.1406 55.7637 20.9609 55.3418 21.9688C55.1309 21.1016 54.873 20.3398 54.5684 19.6836C54.2637 19.0273 53.9355 18.4531 53.584 17.9609C53.2324 17.4688 52.8574 17.0703 52.459 16.7656C52.084 16.4375 51.709 16.168 51.334 15.957C50.4668 15.4883 49.5527 15.2305 48.5918 15.1836C47.3262 15.2539 46.3301 15.4648 45.6035 15.8164C44.9004 16.1445 44.3848 16.5312 44.0566 16.9766C43.7285 17.3984 43.5527 17.8438 43.5293 18.3125C43.5059 18.7578 43.5645 19.1328 43.7051 19.4375C43.8223 19.7188 44.2324 20.0469 44.9355 20.4219C45.6621 20.7969 46.5293 21.2305 47.5371 21.7227C48.5684 22.1914 49.6699 22.7305 50.8418 23.3398C52.0137 23.9258 53.0918 24.582 54.0762 25.3086C55.084 26.0117 55.9277 26.7852 56.6074 27.6289C57.3105 28.4492 57.6973 29.3281 57.7676 30.2656C57.8379 31.4609 57.8262 32.5391 57.7324 33.5C57.6387 34.4609 57.3105 35.2812 56.748 35.9609C56.1855 36.6406 55.3066 37.1797 54.1113 37.5781C52.9395 37.9766 51.3105 38.2227 49.2246 38.3164C47.0684 38.4102 45.2988 38.293 43.916 37.9648C42.5332 37.6367 41.4082 37.1914 40.541 36.6289C39.6973 36.0664 39.0645 35.4453 38.6426 34.7656C38.2441 34.0859 37.9512 33.4414 37.7637 32.832C37.5762 32.1992 37.4473 31.6602 37.377 31.2148C37.3066 30.7461 37.1895 30.4648 37.0254 30.3711C36.8379 30.2539 36.6504 30.1484 36.4629 30.0547C36.2988 29.9609 36.123 29.8789 35.9355 29.8086C35.748 29.7148 35.5605 29.6328 35.373 29.5625L45.6035 27.9102C45.0176 28.3789 44.5605 28.8125 44.2324 29.2109C43.9277 29.6094 43.6934 29.9609 43.5293 30.2656C43.3418 30.6172 43.2129 30.9453 43.1426 31.25C43.0957 31.5781 43.2012 31.9883 43.459 32.4805C43.7168 32.9727 44.0684 33.4531 44.5137 33.9219C44.9824 34.3672 45.5215 34.7422 46.1309 35.0469C46.7402 35.3516 47.373 35.4805 48.0293 35.4336C48.8496 35.3633 49.5176 35.1641 50.0332 34.8359C50.5488 34.4844 50.9355 34.0508 51.1934 33.5352C51.4746 33.0195 51.6387 32.457 51.6855 31.8477C51.7324 31.2383 51.6738 30.6406 51.5098 30.0547C51.3691 29.4453 51.1348 28.8828 50.8066 28.3672C50.4785 27.8281 50.0918 27.3828 49.6465 27.0312C49.248 26.75 48.627 26.4805 47.7832 26.2227C46.9629 25.9648 46.0371 25.6836 45.0059 25.3789C43.998 25.0742 42.9551 24.7227 41.877 24.3242C40.8223 23.9258 39.8613 23.4336 38.9941 22.8477C38.1504 22.2617 37.4707 21.5703 36.9551 20.7734C36.4629 19.9766 36.2754 19.0156 36.3926 17.8906C36.4863 16.9297 36.791 16.1328 37.3066 15.5C37.8457 14.8438 38.5137 14.3281 39.3105 13.9531C40.1309 13.5547 41.0332 13.2617 42.0176 13.0742C43.0254 12.8867 44.0449 12.7812 45.0762 12.7578C46.1309 12.7109 47.1621 12.7227 48.1699 12.793C49.2012 12.8633 50.127 12.9453 50.9473 13.0391C51.7676 13.1328 52.459 13.2266 53.0215 13.3203C53.6074 13.3906 53.9707 13.4375 54.1113 13.4609C54.7207 13.5078 55.3301 13.4961 55.9395 13.4258C56.4785 13.3789 57.0645 13.2734 57.6973 13.1094C58.3535 12.9219 58.9863 12.6406 59.5957 12.2656Z" fill="white"/>
<path d="M20.918 51.5664C21.3737 51.5664 21.7839 51.6445 22.1484 51.8008C22.526 51.944 22.8711 52.1068 23.1836 52.2891C23.5091 52.4714 23.8151 52.6406 24.1016 52.7969C24.388 52.9401 24.681 53.0117 24.9805 53.0117C25.2148 52.9987 25.4818 52.9661 25.7812 52.9141C26.0417 52.862 26.3411 52.7839 26.6797 52.6797C27.0312 52.5625 27.4219 52.3932 27.8516 52.1719C27.4219 52.5885 27.0703 52.9401 26.7969 53.2266C26.5365 53.5 26.3346 53.7279 26.1914 53.9102C26.0221 54.1185 25.8984 54.2812 25.8203 54.3984C25.7422 54.5417 25.625 54.7565 25.4688 55.043C25.3255 55.3034 25.1302 55.6549 24.8828 56.0977C24.6354 56.5273 24.3229 57.0938 23.9453 57.7969C23.9453 56.8984 23.8542 56.2018 23.6719 55.707C23.5026 55.2122 23.3138 54.8346 23.1055 54.5742C22.8581 54.2747 22.5781 54.0859 22.2656 54.0078C21.9792 53.9688 21.6927 54.0208 21.4062 54.1641C21.1198 54.2943 20.8333 54.4896 20.5469 54.75C20.2734 55.0104 20.0065 55.3229 19.7461 55.6875C19.4987 56.0391 19.2708 56.4102 19.0625 56.8008C18.8672 57.1914 18.7044 57.5885 18.5742 57.9922C18.444 58.3828 18.3594 58.7474 18.3203 59.0859C18.2812 59.3854 18.2747 59.737 18.3008 60.1406C18.3268 60.5312 18.3854 60.9349 18.4766 61.3516C18.5677 61.7552 18.6849 62.1523 18.8281 62.543C18.9714 62.9336 19.1471 63.2852 19.3555 63.5977C19.5768 63.8971 19.8242 64.1445 20.0977 64.3398C20.3711 64.5221 20.6836 64.6068 21.0352 64.5938C21.4258 64.5677 21.8099 64.4505 22.1875 64.2422C22.513 64.0729 22.8451 63.8125 23.1836 63.4609C23.5221 63.0964 23.8151 62.582 24.0625 61.918L26.9531 62.4453C26.1198 63.4609 25.306 64.2227 24.5117 64.7305C23.7305 65.2383 23.0273 65.5964 22.4023 65.8047C21.6732 66.0391 20.9831 66.1497 20.332 66.1367C19.5117 66.0456 18.7435 65.7982 18.0273 65.3945C17.3112 64.9909 16.6927 64.5026 16.1719 63.9297C15.6641 63.3438 15.2669 62.7057 14.9805 62.0156C14.694 61.3255 14.5703 60.6484 14.6094 59.9844C14.6354 59.5417 14.7266 59.0273 14.8828 58.4414C15.0391 57.8424 15.2474 57.2305 15.5078 56.6055C15.7812 55.9805 16.1068 55.3685 16.4844 54.7695C16.862 54.1706 17.2786 53.6367 17.7344 53.168C18.1901 52.6862 18.6849 52.3021 19.2188 52.0156C19.7656 51.7161 20.332 51.5664 20.918 51.5664ZM31.9922 57.25C32.3307 57.25 32.6823 57.3151 33.0469 57.4453C33.4115 57.5625 33.763 57.7188 34.1016 57.9141C34.4401 58.0964 34.7461 58.2982 35.0195 58.5195C35.306 58.7279 35.5404 58.9297 35.7227 59.125C36.0482 59.4766 36.2695 59.9518 36.3867 60.5508C36.5169 61.1367 36.543 61.7422 36.4648 62.3672C36.3867 62.9792 36.2044 63.5586 35.918 64.1055C35.6315 64.6523 35.2344 65.056 34.7266 65.3164C34.362 65.4987 34.0039 65.6419 33.6523 65.7461C33.3008 65.8503 32.9622 65.9284 32.6367 65.9805C32.3112 66.0326 32.0052 66.0586 31.7188 66.0586C31.4323 66.0586 31.1849 66.0521 30.9766 66.0391C30.5859 66.013 30.1758 65.8763 29.7461 65.6289C29.3294 65.3815 28.9323 65.0755 28.5547 64.7109C28.1901 64.3464 27.8776 63.9492 27.6172 63.5195C27.3568 63.0768 27.2005 62.6602 27.1484 62.2695C27.0703 61.7357 27.0573 61.1758 27.1094 60.5898C27.1615 60.0039 27.3503 59.4635 27.6758 58.9688C28.0143 58.474 28.5221 58.0638 29.1992 57.7383C29.8893 57.4128 30.8203 57.25 31.9922 57.25ZM31.3477 64.8281C31.4909 64.8542 31.6862 64.8216 31.9336 64.7305C32.181 64.6263 32.4219 64.4635 32.6562 64.2422C32.9036 64.0208 33.1185 63.7409 33.3008 63.4023C33.4961 63.0508 33.6133 62.6276 33.6523 62.1328C33.6914 61.651 33.6914 61.2083 33.6523 60.8047C33.6263 60.401 33.5677 60.0495 33.4766 59.75C33.3854 59.4375 33.2812 59.1836 33.1641 58.9883C33.0469 58.793 32.9232 58.6562 32.793 58.5781C32.5716 58.4609 32.3047 58.3698 31.9922 58.3047C31.6797 58.2266 31.4128 58.2396 31.1914 58.3438C31.0872 58.3958 30.957 58.5065 30.8008 58.6758C30.6445 58.8451 30.4883 59.0599 30.332 59.3203C30.1758 59.5677 30.0326 59.8542 29.9023 60.1797C29.7852 60.5052 29.7005 60.8438 29.6484 61.1953C29.5964 61.5469 29.5833 61.9245 29.6094 62.3281C29.6484 62.7318 29.7331 63.1159 29.8633 63.4805C29.9935 63.832 30.1758 64.138 30.4102 64.3984C30.6576 64.6458 30.9701 64.7891 31.3477 64.8281ZM46.9922 51.0391C47.2396 51.0521 47.5065 51.0586 47.793 51.0586C48.0404 51.0586 48.3203 51.0651 48.6328 51.0781C48.9583 51.0781 49.2969 51.0651 49.6484 51.0391C49.3359 51.1823 49.0625 51.3906 48.8281 51.6641C48.5938 51.9375 48.4049 52.2109 48.2617 52.4844C48.0794 52.8099 47.9297 53.1484 47.8125 53.5C47.7474 53.7083 47.6953 54.0794 47.6562 54.6133C47.6172 55.1341 47.5846 55.7461 47.5586 56.4492C47.5456 57.1523 47.5391 57.8945 47.5391 58.6758C47.5391 59.457 47.5456 60.2057 47.5586 60.9219C47.5716 61.625 47.5911 62.25 47.6172 62.7969C47.6432 63.3438 47.6758 63.7279 47.7148 63.9492C47.7669 64.2096 47.832 64.457 47.9102 64.6914C47.9753 64.8997 48.0599 65.1146 48.1641 65.3359C48.2682 65.5443 48.3984 65.7135 48.5547 65.8438L46.5625 66.7422C46.4583 66.599 46.3737 66.4492 46.3086 66.293C46.2435 66.1497 46.1914 66.0195 46.1523 65.9023C46.1003 65.7591 46.0677 65.6289 46.0547 65.5117C46.0286 65.3555 46.0026 65.1862 45.9766 65.0039C45.9505 64.8086 45.918 64.6263 45.8789 64.457C45.8529 64.2747 45.8333 64.125 45.8203 64.0078C45.8073 63.8906 45.8073 63.819 45.8203 63.793C45.8333 63.7669 45.7552 63.8841 45.5859 64.1445C45.4167 64.3919 45.1628 64.6849 44.8242 65.0234C44.4987 65.349 44.0951 65.668 43.6133 65.9805C43.1315 66.2799 42.5911 66.4688 41.9922 66.5469C41.3802 66.625 40.8138 66.5078 40.293 66.1953C39.7852 65.8828 39.349 65.4466 38.9844 64.8867C38.6198 64.3138 38.3398 63.6562 38.1445 62.9141C37.9622 62.1589 37.8906 61.3906 37.9297 60.6094C37.9557 60.0885 38.0729 59.6263 38.2812 59.2227C38.4896 58.806 38.75 58.4479 39.0625 58.1484C39.388 57.8359 39.7396 57.5755 40.1172 57.3672C40.5078 57.1458 40.8854 56.9635 41.25 56.8203C41.6276 56.6771 41.9792 56.5729 42.3047 56.5078C42.6302 56.4427 42.8906 56.3971 43.0859 56.3711C43.3203 56.3581 43.5872 56.3971 43.8867 56.4883C44.1471 56.5664 44.4466 56.6966 44.7852 56.8789C45.1367 57.0612 45.5273 57.3346 45.957 57.6992C45.8789 56.3971 45.8073 55.3555 45.7422 54.5742C45.6771 53.7799 45.612 53.1745 45.5469 52.7578C45.4818 52.263 45.4232 51.9245 45.3711 51.7422C45.306 51.612 45.2214 51.4818 45.1172 51.3516C45.026 51.2474 44.9089 51.1432 44.7656 51.0391C44.6354 50.9219 44.4792 50.8307 44.2969 50.7656C44.6354 50.8307 44.9609 50.8763 45.2734 50.9023C45.5859 50.9284 45.8724 50.9544 46.1328 50.9805C46.4323 51.0065 46.7188 51.026 46.9922 51.0391ZM42.0898 58.3242C41.8424 58.4154 41.6406 58.5716 41.4844 58.793C41.3411 59.0143 41.224 59.2812 41.1328 59.5938C41.0417 59.8932 40.9766 60.2188 40.9375 60.5703C40.9115 60.9089 40.8919 61.2409 40.8789 61.5664C40.8789 61.8789 40.8789 62.1654 40.8789 62.4258C40.8789 62.6862 40.8789 62.8815 40.8789 63.0117C40.8789 63.0898 40.8919 63.2331 40.918 63.4414C40.957 63.6367 41.0352 63.8451 41.1523 64.0664C41.2695 64.2747 41.4323 64.4635 41.6406 64.6328C41.862 64.8021 42.1549 64.8867 42.5195 64.8867C42.819 64.8607 43.138 64.7565 43.4766 64.5742C43.776 64.418 44.1146 64.1706 44.4922 63.832C44.8828 63.4805 45.2995 62.9792 45.7422 62.3281C45.7161 61.9115 45.6966 61.5664 45.6836 61.293C45.6836 61.0195 45.6771 60.7982 45.6641 60.6289C45.651 60.4336 45.6445 60.2773 45.6445 60.1602V59.8672C45.6445 59.7891 45.6445 59.7044 45.6445 59.6133C45.6445 59.5221 45.651 59.4375 45.6641 59.3594C45.2995 59.099 44.974 58.8776 44.6875 58.6953C44.4141 58.5 44.1406 58.3568 43.8672 58.2656C43.6068 58.1615 43.3333 58.1159 43.0469 58.1289C42.7734 58.1289 42.4544 58.194 42.0898 58.3242ZM54.3164 62.8555C54.681 62.8555 55.0195 62.8164 55.332 62.7383C55.5924 62.6732 55.8398 62.569 56.0742 62.4258C56.3216 62.2695 56.4844 62.0417 56.5625 61.7422C56.8229 61.7943 57.0443 61.8398 57.2266 61.8789C57.4089 61.9049 57.5651 61.931 57.6953 61.957C57.8385 61.9961 57.9622 62.0221 58.0664 62.0352C58.1706 62.0612 58.2943 62.0872 58.4375 62.1133C58.5677 62.1393 58.724 62.1719 58.9062 62.2109C59.1016 62.237 59.3294 62.276 59.5898 62.3281C59.3945 62.3021 59.1927 62.3216 58.9844 62.3867C58.7891 62.4518 58.6003 62.5234 58.418 62.6016C58.2096 62.6927 58.0143 62.8034 57.832 62.9336C57.7148 63.0117 57.5781 63.1289 57.4219 63.2852C57.2786 63.4414 57.0703 63.5911 56.7969 63.7344C56.5234 63.8776 56.1589 64.0013 55.7031 64.1055C55.2604 64.1966 54.6875 64.2292 53.9844 64.2031C53.138 64.1771 52.4284 64.0273 51.8555 63.7539C51.2826 63.4674 50.8203 63.1224 50.4688 62.7188C50.1172 62.3021 49.8633 61.8529 49.707 61.3711C49.5508 60.8893 49.4661 60.4401 49.4531 60.0234C49.4401 59.6068 49.5638 59.1706 49.8242 58.7148C50.0846 58.2591 50.4492 57.8424 50.918 57.4648C51.3997 57.0872 51.9792 56.7812 52.6562 56.5469C53.3333 56.2995 54.0755 56.1758 54.8828 56.1758C55.3516 56.1758 55.7812 56.2344 56.1719 56.3516C56.5755 56.4557 56.9401 56.599 57.2656 56.7812C57.6042 56.9635 57.8971 57.1719 58.1445 57.4062C58.3919 57.6276 58.6003 57.8555 58.7695 58.0898C58.9388 58.3372 59.082 58.5977 59.1992 58.8711C59.3034 59.1055 59.388 59.3724 59.4531 59.6719C59.5182 59.9714 59.5378 60.2773 59.5117 60.5898C58.5221 60.6159 57.7214 60.6354 57.1094 60.6484C56.5104 60.6615 56.0417 60.668 55.7031 60.668H54.8242H54.1602C53.9258 60.668 53.6198 60.6745 53.2422 60.6875C52.8646 60.7005 52.4023 60.7201 51.8555 60.7461C51.9206 61.2669 52.0833 61.6706 52.3438 61.957C52.6172 62.2305 52.9036 62.4388 53.2031 62.582C53.5417 62.7383 53.9128 62.8294 54.3164 62.8555ZM52.5586 59.3398C52.9753 59.3659 53.3203 59.3854 53.5938 59.3984C53.8802 59.4115 54.1146 59.4245 54.2969 59.4375C54.4922 59.4505 54.6484 59.457 54.7656 59.457H55.2539C55.5794 59.457 56.1849 59.4375 57.0703 59.3984C57.0312 58.8255 56.9076 58.3893 56.6992 58.0898C56.5039 57.7904 56.2956 57.569 56.0742 57.4258C55.8138 57.2695 55.5273 57.1784 55.2148 57.1523C54.3685 57.1654 53.737 57.3411 53.3203 57.6797C52.9167 58.0182 52.6628 58.5716 52.5586 59.3398Z" fill="white"/>
</svg>
